<svg xmlns="http://www.w3.org/2000/svg" viewBox="0 0 145.4 41.86"><defs><style>.cls-1{fill:#f68b23;}.cls-2{fill:#fff;}</style></defs><title>BI-Horizontal-FundoClaro_1</title><g id="Layer_2" data-name="Layer 2"><g id="Layer_1-2" data-name="Layer 1"><path class="cls-1" d="M5.06,31.75V34h0l1.68,1,12,6.93,2.33-4L23,38.94h0L36.66,31l-2.32-4,1.91-1.1h0V10.11H31.6V7.9h0L17.92,0,15.59,4,13.68,2.92h0L0,10.82l2.32,4L.41,16h0v15.8Zm29.51-20V24.94L22.72,31.78l-2.64-1.5L31.61,23.5V21.57h0V11.79ZM11,16.79l7.23-4.25,7.3,4.14.05,8.39-7.23,4.25-7.3-4.14Zm7.49-14.5L29.92,8.87V22.55L27.3,24.09l-.1-13.37-1.68-1h0L17.05,4.87ZM2.29,11.43,13.68,4.86,25.53,11.7l0,3L13.92,8.15l-1.67,1h0L3.78,14Zm-.2,18.64V16.92l11.85-6.84,2.64,1.5L5.05,18.36v1.93h0v9.78Zm16,9.5L6.74,33V19.31l2.62-1.54.1,13.37,1.68,1h0L19.61,37Zm-7-9.41,0-3,11.63,6.59,1.67-1h0l8.47-4.89,1.49,2.58L23,37Z"/><path class="cls-2" d="M46.49,16.34V6.67a.52.52,0,0,1,.26-.45,1.2,1.2,0,0,1,.61-.16h3c2,0,3.06.87,3.06,2.62A2.28,2.28,0,0,1,52.08,11a2.5,2.5,0,0,1,1.17.84,2.63,2.63,0,0,1,.4,1.59v.31a3.1,3.1,0,0,1-.83,2.4,3.16,3.16,0,0,1-2.22.75H47.36a1,1,0,0,1-.62-.18A.5.5,0,0,1,46.49,16.34Zm2-6.06h1.71a1.16,1.16,0,0,0,.91-.34A1.32,1.32,0,0,0,51.39,9a1.25,1.25,0,0,0-.33-.92,1.22,1.22,0,0,0-.91-.33H48.46Zm0,5h1.72c1,0,1.48-.54,1.48-1.63v-.23a1.65,1.65,0,0,0-.37-1.21,1.5,1.5,0,0,0-1.11-.37H48.46Z"/><path class="cls-2" d="M57.31,16.32V6.66a.49.49,0,0,1,.29-.45,1.51,1.51,0,0,1,.7-.15,1.48,1.48,0,0,1,.7.15.47.47,0,0,1,.29.45v8.58H63a.48.48,0,0,1,.43.25,1,1,0,0,1,.16.59,1.08,1.08,0,0,1-.16.6.48.48,0,0,1-.43.25H58.18a1.11,1.11,0,0,1-.61-.16A.52.52,0,0,1,57.31,16.32Z"/><path class="cls-2" d="M66.63,13.61V9.47a3.22,3.22,0,0,1,1-2.59,4.55,4.55,0,0,1,5.21,0,3.16,3.16,0,0,1,1,2.59v4.14a3.16,3.16,0,0,1-1,2.59,4.55,4.55,0,0,1-5.21,0A3.22,3.22,0,0,1,66.63,13.61Zm2,0c0,1.14.53,1.71,1.58,1.71s1.61-.57,1.61-1.71V9.47c0-1.14-.54-1.71-1.61-1.71s-1.58.57-1.58,1.71Z"/><path class="cls-2" d="M77.62,13.61V9.47a3.2,3.2,0,0,1,1-2.58,3.82,3.82,0,0,1,2.55-.83,4.21,4.21,0,0,1,2.61.77,2.46,2.46,0,0,1,1,2.06,1,1,0,0,1-.23.75,1.17,1.17,0,0,1-.76.2c-.66,0-1-.2-1-.61,0-.13,0-.24,0-.34a2.09,2.09,0,0,0-.13-.37,1.14,1.14,0,0,0-.25-.38,1.06,1.06,0,0,0-.46-.27,1.93,1.93,0,0,0-.71-.11c-1.07,0-1.61.57-1.61,1.71v4.14c0,1.14.55,1.71,1.64,1.71a2.1,2.1,0,0,0,.81-.14,1,1,0,0,0,.48-.43,2.67,2.67,0,0,0,.2-.49,3.39,3.39,0,0,0,.06-.53c0-.4.36-.61,1-.61a1.2,1.2,0,0,1,.77.2,1,1,0,0,1,.24.76,2.59,2.59,0,0,1-1,2.14,4.12,4.12,0,0,1-2.63.8,3.79,3.79,0,0,1-2.54-.83A3.19,3.19,0,0,1,77.62,13.61Z"/><path class="cls-2" d="M88.36,16.32V6.66a.49.49,0,0,1,.29-.45,1.73,1.73,0,0,1,1.41,0,.49.49,0,0,1,.29.45v4.05l3.29-4.37a.7.7,0,0,1,.55-.28,1.23,1.23,0,0,1,.77.32.91.91,0,0,1,.38.68.57.57,0,0,1-.12.37l-2.74,3.33,3.33,4.94a.58.58,0,0,1,.11.34.86.86,0,0,1-.38.66,1.28,1.28,0,0,1-.81.31.75.75,0,0,1-.69-.38L91.17,12.4l-.82,1v2.91a.5.5,0,0,1-.3.45,1.41,1.41,0,0,1-.69.16,1.43,1.43,0,0,1-.71-.16A.51.51,0,0,1,88.36,16.32Z"/><path class="cls-2" d="M98.71,13.61V9.47a3.17,3.17,0,0,1,1-2.58,3.81,3.81,0,0,1,2.54-.83,4.24,4.24,0,0,1,2.62.77,2.46,2.46,0,0,1,1,2.06,1,1,0,0,1-.23.75,1.2,1.2,0,0,1-.77.2c-.65,0-1-.2-1-.61a2.9,2.9,0,0,0,0-.34,1.39,1.39,0,0,0-.12-.37,1.14,1.14,0,0,0-.25-.38,1.06,1.06,0,0,0-.46-.27,1.93,1.93,0,0,0-.71-.11c-1.07,0-1.61.57-1.61,1.71v4.14c0,1.14.55,1.71,1.64,1.71a2.14,2.14,0,0,0,.81-.14,1,1,0,0,0,.48-.43,2,2,0,0,0,.19-.49,2.44,2.44,0,0,0,.07-.53c0-.4.36-.61,1-.61a1.22,1.22,0,0,1,.77.2,1,1,0,0,1,.24.76,2.59,2.59,0,0,1-1,2.14,4.14,4.14,0,0,1-2.63.8,3.77,3.77,0,0,1-2.54-.83A3.19,3.19,0,0,1,98.71,13.61Z"/><path class="cls-2" d="M109.45,16.32V6.66a.49.49,0,0,1,.29-.45,1.51,1.51,0,0,1,.7-.15,1.55,1.55,0,0,1,.71.15.49.49,0,0,1,.29.45v3.88h3.43V6.66a.49.49,0,0,1,.29-.45,1.51,1.51,0,0,1,.7-.15,1.48,1.48,0,0,1,.7.15.47.47,0,0,1,.29.45v9.66a.5.5,0,0,1-.3.45,1.59,1.59,0,0,1-1.39,0,.51.51,0,0,1-.29-.45V12.05h-3.43v4.27a.5.5,0,0,1-.3.45,1.42,1.42,0,0,1-.7.16,1.39,1.39,0,0,1-.7-.16A.51.51,0,0,1,109.45,16.32Z"/><path class="cls-2" d="M119.91,16.07a1.16,1.16,0,0,1,0-.16l3-9.35a.71.71,0,0,1,.45-.43,1.94,1.94,0,0,1,.82-.16,2,2,0,0,1,.82.17.79.79,0,0,1,.46.49L128.38,16a.54.54,0,0,1,0,.15c0,.22-.14.4-.42.56a1.63,1.63,0,0,1-.84.24c-.37,0-.6-.13-.67-.39l-.58-2h-3.27l-.57,2q-.12.39-.75.39a1.9,1.9,0,0,1-.95-.25A.69.69,0,0,1,119.91,16.07Zm3.17-3h2.64l-1.33-4.57Z"/><path class="cls-2" d="M131.94,16.32V6.66a.49.49,0,0,1,.29-.45,1.73,1.73,0,0,1,1.41,0,.49.49,0,0,1,.29.45v9.66a.5.5,0,0,1-.3.45,1.41,1.41,0,0,1-.69.16,1.43,1.43,0,0,1-.71-.16A.51.51,0,0,1,131.94,16.32Z"/><path class="cls-2" d="M138,16.32V6.67a.49.49,0,0,1,.29-.45,1.42,1.42,0,0,1,.7-.16,1.58,1.58,0,0,1,.84.19,2.31,2.31,0,0,1,.64.84l2.95,5.54v-6a.49.49,0,0,1,.29-.45,1.51,1.51,0,0,1,.7-.15,1.48,1.48,0,0,1,.7.15.47.47,0,0,1,.29.45v9.66a.51.51,0,0,1-.29.45,1.42,1.42,0,0,1-.7.16,1.18,1.18,0,0,1-1.14-.61l-3.28-6v6a.5.5,0,0,1-.3.45,1.61,1.61,0,0,1-1.4,0A.51.51,0,0,1,138,16.32Z"/><path class="cls-1" d="M46.49,33.14V23.48a.49.49,0,0,1,.29-.45,1.65,1.65,0,0,1,.7-.14,1.7,1.7,0,0,1,.71.14.49.49,0,0,1,.29.45v9.66a.5.5,0,0,1-.3.45,1.42,1.42,0,0,1-.7.16,1.39,1.39,0,0,1-.7-.16A.51.51,0,0,1,46.49,33.14Z"/><path class="cls-1" d="M52.55,33.14V23.49a.51.51,0,0,1,.29-.45,1.83,1.83,0,0,1,1.54,0,2.46,2.46,0,0,1,.64.83L58,29.46v-6a.47.47,0,0,1,.29-.45,1.62,1.62,0,0,1,.7-.14,1.65,1.65,0,0,1,.7.14.49.49,0,0,1,.29.45v9.66a.5.5,0,0,1-.3.45,1.41,1.41,0,0,1-.69.16,1.21,1.21,0,0,1-1.15-.61l-3.28-6v6a.51.51,0,0,1-.29.45,1.42,1.42,0,0,1-.7.16,1.39,1.39,0,0,1-.7-.16A.51.51,0,0,1,52.55,33.14Z"/><path class="cls-1" d="M63.48,32a1.15,1.15,0,0,1,.26-.69.77.77,0,0,1,.61-.35.84.84,0,0,1,.45.19,4.54,4.54,0,0,1,.48.41A2.49,2.49,0,0,0,66,32a2.59,2.59,0,0,0,1,.18,2.21,2.21,0,0,0,1.22-.32,1.08,1.08,0,0,0,.49-1,1.29,1.29,0,0,0-.27-.8,2.24,2.24,0,0,0-.7-.58c-.29-.15-.61-.3-1-.44s-.7-.31-1-.49a5.18,5.18,0,0,1-1-.6,2.42,2.42,0,0,1-.7-.89,2.89,2.89,0,0,1-.27-1.27,2.94,2.94,0,0,1,.33-1.41,2.38,2.38,0,0,1,.88-1,3.8,3.8,0,0,1,1.17-.5,5.21,5.21,0,0,1,1.33-.16c.26,0,.54,0,.84.05s.61.1.94.18a1.92,1.92,0,0,1,.8.38.78.78,0,0,1,.32.61,1.3,1.3,0,0,1-.22.69.65.65,0,0,1-.58.35,2.73,2.73,0,0,1-.74-.28,3.18,3.18,0,0,0-1.36-.28,2.31,2.31,0,0,0-1.28.3,1,1,0,0,0-.45.84,1,1,0,0,0,.37.75,2.68,2.68,0,0,0,.91.52c.36.14.75.3,1.17.51a8.83,8.83,0,0,1,1.18.66,2.88,2.88,0,0,1,.91,1,3.33,3.33,0,0,1,.36,1.59,2.87,2.87,0,0,1-1,2.35,4,4,0,0,1-2.63.83,5,5,0,0,1-2.49-.58C63.82,32.92,63.48,32.5,63.48,32Z"/><path class="cls-1" d="M74.23,33.14V23.48a.54.54,0,0,1,.21-.42.8.8,0,0,1,.54-.17h3.07a3.74,3.74,0,0,1,2.52.81,3.15,3.15,0,0,1,.94,2.53v.09a3.17,3.17,0,0,1-1,2.56,4,4,0,0,1-2.6.82H76.22v3.44a.5.5,0,0,1-.3.45,1.41,1.41,0,0,1-.69.16,1.43,1.43,0,0,1-.71-.16A.51.51,0,0,1,74.23,33.14Zm2-5h1.71a1.57,1.57,0,0,0,1.18-.43,1.78,1.78,0,0,0,.42-1.28v-.18A1.78,1.78,0,0,0,79.11,25a1.57,1.57,0,0,0-1.18-.43H76.22Z"/><path class="cls-1" d="M85,33.14V23.49a.49.49,0,0,1,.26-.44,1.09,1.09,0,0,1,.61-.16h5.43a.5.5,0,0,1,.46.25,1,1,0,0,1,.16.58,1.09,1.09,0,0,1-.16.61.53.53,0,0,1-.46.25H87v3h2.32a.56.56,0,0,1,.46.23.94.94,0,0,1,.16.55.84.84,0,0,1-.16.51.53.53,0,0,1-.46.23H87v3h4.32a.53.53,0,0,1,.46.25,1.09,1.09,0,0,1,.16.61,1,1,0,0,1-.16.58.5.5,0,0,1-.46.25H85.85a1.09,1.09,0,0,1-.61-.16A.5.5,0,0,1,85,33.14Z"/><path class="cls-1" d="M95.31,33.14V23.48a.58.58,0,0,1,.18-.42.61.61,0,0,1,.46-.17h3q3.61,0,3.62,3.1a3.28,3.28,0,0,1-.55,2,2.69,2.69,0,0,1-1.45,1l2,3.61a.36.36,0,0,1,.07.24.89.89,0,0,1-.39.69,1.36,1.36,0,0,1-.84.32.74.74,0,0,1-.69-.46l-2.17-4.11H97.29v3.88a.51.51,0,0,1-.29.45,1.39,1.39,0,0,1-.7.16,1.42,1.42,0,0,1-.7-.16A.51.51,0,0,1,95.31,33.14Zm2-5.39H99a1.42,1.42,0,0,0,1.63-1.58A1.42,1.42,0,0,0,99,24.58H97.29Z"/></g></g></svg>